<?xml version="1.0" standalone="no"?>
<!DOCTYPE svg PUBLIC "-//W3C//DTD SVG 20010904//EN"
 "http://www.w3.org/TR/2001/REC-SVG-20010904/DTD/svg10.dtd">
<svg version="1.0" xmlns="http://www.w3.org/2000/svg"
 width="270.000000pt" height="270.000000pt" viewBox="0 0 270.000000 270.000000"
 preserveAspectRatio="xMidYMid meet">
<metadata>
Created by potrace 1.11, written by Peter Selinger 2001-2013
</metadata>
<g transform="translate(0.000000,270.000000) scale(0.100000,-0.100000)"
fill="#000000" stroke="none">
<path d="M1574 2448 c-40 -68 -62 -107 -95 -165 -12 -21 -46 -82 -76 -135
l-56 -98 -64 113 c-36 61 -94 162 -129 223 l-64 111 -356 -1 -357 -1 -173
-300 c-95 -165 -173 -307 -173 -315 -1 -12 105 -202 281 -505 16 -27 36 -65
45 -82 9 -18 21 -33 27 -34 68 -5 685 -2 697 3 9 4 72 106 140 227 68 121 127
220 130 221 6 0 60 -90 127 -209 14 -25 38 -67 53 -93 16 -27 29 -53 29 -57 0
-4 -67 -126 -150 -271 -82 -144 -150 -266 -150 -270 0 -5 52 -100 116 -212 65
-111 126 -219 137 -238 10 -19 37 -65 59 -103 l39 -67 357 2 357 3 132 230
c73 127 139 244 148 260 17 32 31 55 57 95 16 26 15 28 -139 298 l-155 272
132 232 c73 128 143 249 155 269 l23 36 -176 309 -177 309 -357 3 -357 2 -37
-62z m786 -328 l131 -231 -59 -102 c-33 -56 -72 -124 -87 -152 -15 -27 -48
-85 -72 -127 l-45 -78 -262 0 -262 0 -131 228 -131 227 38 70 c20 39 79 143
130 233 l93 162 262 0 263 0 132 -230z m-1254 26 c60 -105 119 -209 130 -231
l21 -40 -126 -222 c-70 -122 -130 -225 -134 -229 -4 -4 -122 -7 -263 -8 l-256
-1 -17 25 c-10 14 -70 118 -135 231 l-117 206 132 230 131 230 262 0 263 0
109 -191z m1240 -1083 c66 -115 125 -219 131 -232 12 -22 3 -41 -118 -252
l-131 -229 -262 0 -262 0 -50 86 c-27 48 -61 108 -75 133 -14 25 -51 90 -82
144 l-56 97 90 156 c49 86 89 158 89 161 0 3 14 26 31 51 17 25 35 56 40 69
l9 23 264 0 264 0 118 -207z"/>
</g>
</svg>
